HIERARCHY
ROOT Hips
{
	OFFSET -0.001795 -0.223333 0.028219
	CHANNELS 6 Xposition Yposition Zposition Zrotation Yrotation Xrotation 
	JOINT LeftUpLeg
	{
		OFFSET 0.069520 -0.091406 -0.006815
		CHANNELS 3 Zrotation Yrotation Xrotation
		JOINT LeftLeg
		{
			OFFSET 0.034277 -0.375199 -0.004496
			CHANNELS 3 Zrotation Yrotation Xrotation
			JOINT LeftFoot
			{
				OFFSET -0.013596 -0.397961 -0.043693
				CHANNELS 3 Zrotation Yrotation Xrotation
				JOINT LeftToe
				{
					OFFSET 0.026358 -0.055791 0.119288
					CHANNELS 3 Zrotation Yrotation Xrotation
					End Site
					{
						OFFSET 0.000000 0.000000 0.000000
					}
				}
			}
		}
	}
	JOINT RightUpLeg
	{
		OFFSET -0.067670 -0.090522 -0.004320
		CHANNELS 3 Zrotation Yrotation Xrotation
		JOINT RightLeg
		{
			OFFSET -0.038290 -0.382569 -0.008850
			CHANNELS 3 Zrotation Yrotation Xrotation
			JOINT RightFoot
			{
				OFFSET 0.015774 -0.398415 -0.042312
				CHANNELS 3 Zrotation Yrotation Xrotation
				JOINT RightToe
				{
					OFFSET -0.025372 -0.048144 0.123348
					CHANNELS 3 Zrotation Yrotation Xrotation
					End Site
					{
						OFFSET 0.000000 0.000000 0.000000
					}
				}
			}
		}
	}
	JOINT Spine
	{
		OFFSET -0.002533 0.108963 -0.026696
		CHANNELS 3 Zrotation Yrotation Xrotation
		JOINT Spine1
		{
			OFFSET 0.005487 0.135180 0.001092
			CHANNELS 3 Zrotation Yrotation Xrotation
			JOINT Spine2
			{
				OFFSET 0.001457 0.052922 0.025425
				CHANNELS 3 Zrotation Yrotation Xrotation
				JOINT Neck
				{
					OFFSET -0.002778 0.213870 -0.042857
					CHANNELS 3 Zrotation Yrotation Xrotation
					JOINT Head
					{
						OFFSET 0.005152 0.064970 0.051349
						CHANNELS 3 Zrotation Yrotation Xrotation
						End Site
						{
							OFFSET 0.000000 0.000000 0.000000
						}
					}
				}
				JOINT LeftShoulder
				{
					OFFSET 0.078845 0.121749 -0.034090
					CHANNELS 3 Zrotation Yrotation Xrotation
					JOINT LeftArm
					{
						OFFSET 0.090977 0.030469 -0.008868
						CHANNELS 3 Zrotation Yrotation Xrotation
						JOINT LeftForeArm
						{
							OFFSET 0.259612 -0.012772 -0.027456
							CHANNELS 3 Zrotation Yrotation Xrotation
							JOINT LeftHand
							{
								OFFSET 0.249234 0.008986 -0.001171
								CHANNELS 3 Zrotation Yrotation Xrotation
								End Site
								{
									OFFSET 0.000000 0.000000 0.000000
								}
							}
						}
					}
				}
				JOINT RightShoulder
				{
					OFFSET -0.081759 0.118833 -0.038615
					CHANNELS 3 Zrotation Yrotation Xrotation
					JOINT RightArm
					{
						OFFSET -0.096012 0.032551 -0.009143
						CHANNELS 3 Zrotation Yrotation Xrotation
						JOINT RightForeArm
						{
							OFFSET -0.253742 -0.013329 -0.021401
							CHANNELS 3 Zrotation Yrotation Xrotation
							JOINT RightHand
							{
								OFFSET -0.255298 0.007772 -0.005559
								CHANNELS 3 Zrotation Yrotation Xrotation
								End Site
								{
									OFFSET 0.000000 0.000000 0.000000
								}
							}
						}
					}
				}
			}
		}
	}
}
MOTION
Frames: 11
Frame Time: 0.050000
0.000000 0.926218 0.000000 0.002043 1.011788 2.184699 6.970474 -0.850409 -22.344907 -11.273110 3.495449 34.553771 8.740406 18.012841 0.570600 0.000000 0.000000 0.000000 0.653674 0.603637 -5.855803 3.902187 -0.375836 13.761436 -6.702769 -16.685125 0.622176 0.000000 0.000000 0.000000 -1.902974 -0.220326 9.941500 5.153593 -0.617673 -23.894621 1.804994 0.381095 28.202467 -1.707524 2.896150 -32.058188 0.000000 0.000000 0.000000 -23.612978 -3.330130 0.376407 -52.997165 -8.208377 -5.262278 -79.941247 -71.155382 68.664413 0.000000 0.000000 0.000000 11.069542 11.869743 5.129851 58.626118 14.265224 -1.273568 31.913169 73.110358 29.975037 0.000000 0.000000 0.000000 
0.001037 0.925143 0.011819 -0.086393 2.295855 2.900101 7.392127 -0.964872 -25.282573 -10.752511 2.962801 32.649792 9.568484 19.857571 6.708696 0.000000 0.000000 0.000000 0.984021 0.522019 -5.004162 3.722365 -0.377454 12.390697 -7.140546 -17.783287 0.476373 0.000000 0.000000 0.000000 -2.501718 -0.140829 8.894065 7.102209 -1.199514 -22.309157 1.137886 -0.413904 26.810650 -2.986056 3.558955 -33.937555 0.000000 0.000000 0.000000 -24.043724 -2.175419 -0.402007 -52.045769 -9.721672 -4.410136 -90.146571 -70.989386 78.096209 0.000000 0.000000 0.000000 8.868346 13.561111 5.656995 58.942394 14.990584 -0.654354 41.040369 75.789262 38.800221 0.000000 0.000000 0.000000 
0.003461 0.925231 0.025067 0.278544 1.522786 2.039894 7.275203 -0.948428 -25.907375 -8.451204 1.764851 22.894075 16.540514 27.479316 30.851579 0.000000 0.000000 0.000000 -0.673423 0.419544 -4.251981 5.408381 -0.751580 14.176906 -6.768414 -16.869218 0.731535 0.000000 0.000000 0.000000 -2.013440 -0.218115 10.134353 6.484624 -0.967251 -23.512690 1.655924 0.297197 28.517151 -2.703781 3.461418 -33.280318 0.000000 0.000000 0.000000 -23.007185 -3.015077 0.148553 -52.707470 -10.338600 -4.322323 -98.373064 -73.062887 88.656451 0.000000 0.000000 0.000000 9.738699 14.046688 6.002368 55.990425 17.223751 0.101999 33.685643 75.900285 32.855329 0.000000 0.000000 0.000000 
0.007529 0.924780 0.040170 0.315467 1.247720 1.770146 6.806512 -1.058034 -26.801127 -5.276957 0.722325 15.267386 18.144984 26.055532 56.233715 0.000000 0.000000 0.000000 -0.862972 0.336563 -3.385264 5.106952 -0.676489 14.909569 -6.677306 -16.654139 0.941708 0.000000 0.000000 0.000000 -2.184819 -0.207534 10.477375 7.572378 -1.383354 -21.976231 0.877410 0.526031 27.183802 -2.773482 3.517778 -34.318798 0.000000 0.000000 0.000000 -22.409136 -2.317222 -0.293915 -53.417838 -11.803215 -3.551449 -98.195967 -74.181901 89.512540 0.000000 0.000000 0.000000 8.544196 15.590475 6.495125 55.348785 19.877076 1.559408 26.917073 75.979847 27.134981 0.000000 0.000000 0.000000 
0.013379 0.923324 0.057177 0.485323 0.449600 1.625843 6.212297 -1.111579 -26.390753 -2.965840 0.241266 9.406023 8.902803 19.659233 50.155113 0.000000 0.000000 0.000000 -1.093430 0.241774 -2.349524 4.226707 -0.430026 15.298932 -6.466333 -16.101120 0.669773 0.000000 0.000000 0.000000 -2.268282 -0.202333 10.968928 7.809306 -1.599870 -20.538722 0.945552 0.911633 26.496887 -1.978510 3.153146 -35.696331 0.000000 0.000000 0.000000 -21.792607 -3.025204 0.161112 -53.742714 -13.586632 -2.678013 -103.802066 -76.283753 97.554479 0.000000 0.000000 0.000000 8.344438 16.925518 7.003218 53.681632 23.259214 3.090583 14.975188 75.547443 17.255832 0.000000 0.000000 0.000000 
0.021179 0.920366 0.076560 0.142034 0.376643 1.628236 6.220969 -1.081266 -25.841401 -2.025014 0.110302 6.554074 2.906078 13.127811 33.778320 0.000000 0.000000 0.000000 -1.111997 0.119780 -0.996164 3.927626 -0.354820 15.195235 -6.457126 -16.057591 0.477268 0.000000 0.000000 0.000000 -2.214744 -0.219930 11.443218 7.088172 -1.422810 -20.323441 2.143408 1.290383 26.404078 -1.926760 3.174308 -35.676418 0.000000 0.000000 0.000000 -21.357187 -5.160797 1.301061 -53.962504 -15.971371 -1.555150 -108.527957 -79.470746 105.632885 0.000000 0.000000 0.000000 8.329090 18.352137 7.640655 52.082764 25.850743 4.134343 -0.295923 75.246486 5.377715 0.000000 0.000000 0.000000 
0.031248 0.916335 0.098283 -0.205984 -0.123509 1.542248 6.150101 -1.026888 -24.967231 -2.313102 0.148170 7.708623 1.867225 10.291102 24.030860 0.000000 0.000000 0.000000 -1.200378 -0.030262 0.701147 3.276398 -0.181370 14.887931 -6.327398 -15.678040 0.074594 0.000000 0.000000 0.000000 -1.899130 -0.285306 12.799572 7.010314 -1.339348 -21.119485 2.364260 2.541576 27.139495 -0.594562 2.699343 -35.486914 0.000000 0.000000 0.000000 -19.424495 -6.761935 2.030234 -54.045660 -19.591825 0.050899 -121.080291 -82.369598 121.539491 0.000000 0.000000 0.000000 8.369514 18.903824 8.015408 49.186443 29.892690 5.421556 -11.143454 72.897189 -2.592727 0.000000 0.000000 0.000000 
0.043934 0.912543 0.122366 -0.425683 -0.441751 2.155587 5.791088 -1.108882 -25.596414 -2.687277 0.193897 10.429898 1.617108 10.424624 26.756732 0.000000 0.000000 0.000000 -1.938565 -0.053687 1.328847 3.377051 -0.183966 15.772236 -6.173596 -15.249566 -0.275917 0.000000 0.000000 0.000000 -1.706330 -0.300178 12.654471 6.111424 -1.165415 -20.297034 3.219769 3.302118 26.863849 -0.226396 2.604043 -35.271282 0.000000 0.000000 0.000000 -18.216133 -8.211912 2.686045 -53.526626 -25.226718 2.682792 -144.824678 -86.995810 149.866650 0.000000 0.000000 0.000000 7.467728 19.881902 8.339525 46.290068 34.255657 6.769177 -23.992122 68.859900 -11.139625 0.000000 0.000000 0.000000 
0.059234 0.910178 0.148069 -0.679657 -1.409100 2.822587 5.617574 -1.134645 -26.987596 -3.486300 0.382921 14.808262 2.540282 12.644850 35.374593 0.000000 0.000000 0.000000 -2.265734 -0.008067 1.032151 2.415175 0.150740 18.351946 -5.972892 -14.775029 0.155184 0.000000 0.000000 0.000000 -2.076603 -0.233207 12.469028 6.517864 -1.265643 -20.546963 3.642396 4.229976 27.403282 0.440313 2.352877 -35.445498 0.000000 0.000000 0.000000 -16.475752 -9.552835 3.348566 -52.373239 -30.221693 4.795944 121.008248 -85.424168 -110.305635 0.000000 0.000000 0.000000 7.172110 21.170007 8.870452 41.788639 38.635953 7.369145 -32.457655 63.585513 -15.394498 0.000000 0.000000 0.000000 
0.076741 0.910816 0.174148 -0.388762 -1.181101 2.692818 4.846588 -1.370862 -27.999528 -4.973770 0.813561 19.678551 2.722598 12.819468 34.879991 0.000000 0.000000 0.000000 -3.505004 0.016962 1.394266 2.111997 0.300864 21.336406 -5.637762 -14.366670 2.484426 0.000000 0.000000 0.000000 -2.664911 -0.165858 12.831810 6.377787 -1.335161 -19.238948 4.049865 3.654073 26.864667 -0.604626 2.802158 -36.425115 0.000000 0.000000 0.000000 -14.454802 -11.447369 4.364386 -50.721006 -36.454624 7.461442 88.928249 -78.323210 -70.845514 0.000000 0.000000 0.000000 4.898611 22.383834 8.827690 37.909693 42.854835 7.880927 -40.049549 57.711870 -18.119828 0.000000 0.000000 0.000000 
0.094750 0.915427 0.197605 -0.205195 -1.000497 2.970829 3.642196 -1.654530 -27.772785 -5.485627 0.987483 21.388157 2.634935 12.807216 35.210594 0.000000 0.000000 0.000000 -5.021213 0.263259 -1.788392 3.454951 -0.006191 28.551222 -6.125806 -16.140247 8.553383 0.000000 0.000000 0.000000 -3.882597 -0.005843 13.007409 7.274580 -1.540324 -19.671523 4.002325 3.072202 27.612361 -0.953422 2.892925 -36.543514 0.000000 0.000000 0.000000 -11.810737 -12.924663 5.082639 -47.582316 -42.802511 9.475437 78.018372 -68.904093 -52.146986 0.000000 0.000000 0.000000 2.536417 24.403710 9.031478 33.107783 45.783153 7.259075 -46.014437 50.560997 -18.527295 0.000000 0.000000 0.000000 
